<?xml version="1.0" encoding="UTF-8" standalone="no"?>
<!-- Created with Inkscape (http://www.inkscape.org/) -->

<svg
   xmlns:dc="http://purl.org/dc/elements/1.1/"
   xmlns:cc="http://creativecommons.org/ns#"
   xmlns:rdf="http://www.w3.org/1999/02/22-rdf-syntax-ns#"
   xmlns:svg="http://www.w3.org/2000/svg"
   xmlns="http://www.w3.org/2000/svg"
   xmlns:xlink="http://www.w3.org/1999/xlink"
   xmlns:sodipodi="http://sodipodi.sourceforge.net/DTD/sodipodi-0.dtd"
   xmlns:inkscape="http://www.inkscape.org/namespaces/inkscape"
   width="2560"
   height="1500"
   id="svg2"
   version="1.1"
   inkscape:version="0.92.3 (cc100de, 2018-03-31, custom)"
   onload="var src; if (document.documentURI) src = document.documentURI; else if (this.getSrc) src = this.getSrc(); else src = document.location.href + ''; try {parent.preload.load(src);}catch(e) {}"
   sodipodi:docname="speedometer.svg">
  <defs
     id="defs4">
    <linearGradient
       inkscape:collect="always"
       id="linearGradient4484">
      <stop
         style="stop-color:#cccccc;stop-opacity:1;"
         offset="0"
         id="stop4486" />
      <stop
         style="stop-color:#cccccc;stop-opacity:0;"
         offset="1"
         id="stop4488" />
    </linearGradient>
    <linearGradient
       inkscape:collect="always"
       id="linearGradient10237">
      <stop
         style="stop-color:#cccccc;stop-opacity:1;"
         offset="0"
         id="stop10239" />
      <stop
         style="stop-color:#cccccc;stop-opacity:0;"
         offset="1"
         id="stop10241" />
    </linearGradient>
    <linearGradient
       id="linearGradient10151"
       osb:paint="solid">
      <stop
         style="stop-color:#000000;stop-opacity:1;"
         offset="0"
         id="stop10153" />
    </linearGradient>
    <linearGradient
       inkscape:collect="always"
       xlink:href="#linearGradient10237"
       id="linearGradient10243"
       x1="282.85716"
       y1="301.64793"
       x2="382.85715"
       y2="301.64793"
       gradientUnits="userSpaceOnUse"
       gradientTransform="translate(67.142838,-6.724359)" />
    <linearGradient
       inkscape:collect="always"
       xlink:href="#linearGradient4484"
       id="linearGradient4490"
       x1="350"
       y1="292.36221"
       x2="449.99999"
       y2="292.36221"
       gradientUnits="userSpaceOnUse" />
  </defs>
  <sodipodi:namedview
     id="base"
     pagecolor="#ffffff"
     bordercolor="#666666"
     borderopacity="1.0"
     inkscape:pageopacity="0.0"
     inkscape:pageshadow="2"
     inkscape:zoom="0.59485223"
     inkscape:cx="545.19949"
     inkscape:cy="526.1811"
     inkscape:document-units="px"
     inkscape:current-layer="layer1"
     showgrid="false"
     inkscape:window-width="1536"
     inkscape:window-height="801"
     inkscape:window-x="-8"
     inkscape:window-y="-8"
     inkscape:window-maximized="1" />
  <metadata
     id="metadata7">
    <rdf:RDF>
      <cc:Work
         rdf:about="">
        <dc:format>image/svg+xml</dc:format>
        <dc:type
           rdf:resource="http://purl.org/dc/dcmitype/StillImage" />
        <dc:title></dc:title>
      </cc:Work>
    </rdf:RDF>
  </metadata>
  <g
     inkscape:label="Layer 1"
     inkscape:groupmode="layer"
     id="layer1">
    <g
       id="g4492">
      <path
         inkscape:connector-curvature="0"
         style="opacity:0.98900003;fill:url(#linearGradient10243);fill-opacity:1;fill-rule:nonzero;stroke:#000000;stroke-width:0.59574556;stroke-linecap:round;stroke-miterlimit:4;stroke-dasharray:none;stroke-opacity:1"
         d="M 398.57142,120.22143 401.42857,120.22143 C 428.17212,120.22143 449.70212,141.75144 449.70212,168.49499 L 449.70212,421.35215 C 449.70212,448.0957 428.17212,469.6257 401.42857,469.6257 L 398.57142,469.6257 C 371.82787,469.6257 350.29787,448.0957 350.29787,421.35215 L 350.29787,168.49499 C 350.29787,141.75144 371.82787,120.22143 398.57142,120.22143 Z"
         id="rect3942" />
      <path
         inkscape:connector-curvature="0"
         style="opacity:0.98900003;fill:url(#linearGradient4490);fill-opacity:1;fill-rule:nonzero;stroke:#000000;stroke-width:0.52337772;stroke-linecap:round;stroke-miterlimit:4;stroke-dasharray:none;stroke-opacity:1"
         d="M 350.26169,157.6239 449.7383,157.6239 449.7383,427.10052 350.26169,427.10052 Z"
         id="rect3942-5-0" />
      <rect
         inkscape:label="{&quot;attr&quot;:&quot;bar&quot;,&quot;max&quot;:100,&quot;min&quot;:0,&quot;tag&quot;:&quot;TankLevel&quot;}"
         y="157.6239"
         x="424.7247"
         height="269.34259"
         width="25.013586"
         id="rect4482"
         style="opacity:0.98900003;fill:#0000ff;fill-opacity:0.89071033;fill-rule:nonzero;stroke:#000000;stroke-width:0.65741456;stroke-linecap:round;stroke-miterlimit:4;stroke-dasharray:none;stroke-opacity:1" />
    </g>
  </g>
    <g
       transform="matrix(1.0639846,0,0,1.0639846,-242.66767,-471.31307)"
       id="gSpeedometer"
       inkscape:label="{&quot;attr&quot;:&quot;clone&quot;,&quot;map&quot;:[&quot;%n=TAG1&quot;]}">
      <path
         inkscape:connector-curvature="0"
         d="m 297.75503,97.284765 -7.34375,-6.1625 1.47,-1.75125 7.34375,6.1625 z m 16.2625,-14.16375 -4.79375,-8.3025 1.97875,-1.1425 4.79375,8.30125 z m 20.12375,-7.7475 -1.665,-9.44 2.25125,-0.3975 1.665,9.44 z m 21.56125,-0.3975 1.665,-9.44 2.25,0.3975 -1.66375,9.44 z m 20.39625,7.0025 4.79375,-8.3025 1.97875,1.1425 -4.7925,8.30375 z m 16.77125,13.555 7.345,-6.16125 1.46875,1.75 -7.34375,6.1625 z m 11.125,18.473745 9.00875,-3.27875 0.78,2.14875 -9.0075,3.27875 z m 4.135,21.165 h 9.58625 v 2.285 h -9.58625 z m -120.8125,-19.0175 -9.0075,-3.27875 0.78125,-2.1475 9.0075,3.2775 z m 125.68625,45.745 -9.00875,-3.27875 0.78125,-2.1475 9.00875,3.27875 z m -138.625,-26.7275 h 9.58625 v 2.285 h -9.58625 z m 106.51375,63.78 -4.7925,-8.30125 1.97875,-1.1425 4.7925,8.30125 z m 19.3225,-15.695 -7.34375,-6.16125 1.46875,-1.75125 7.34375,6.16125 -1.46875,1.75125 v 0"
         style="fill:#fdfcce;fill-opacity:1;fill-rule:evenodd;stroke:none"
         id="path16" />
      <path
         inkscape:connector-curvature="0"
         d="m 284.28503,101.23476 5.5,3.17625 c 0.165,-0.29125 0.33625,-0.57875 0.50625,-0.86875 l -5.50375,-3.1775 z m 15.72125,-19.008745 4.08,4.8625 c 0.255,-0.2175 0.51,-0.43375 0.76875,-0.6475 l -4.08,-4.86125 z m 21.2775,-12.48375 2.16875,5.95875 c 0.3125,-0.11625 0.6275,-0.22875 0.9425,-0.34125 l -2.16875,-5.96125 z m 24.2625,-4.455 v 6.34375 c 0.33375,-0.0025 0.66875,-0.0063 1.0025,-0.0038 v -6.34 h -1.0025 v 0 z m 24.3225,4.11 -2.17,5.9625 c 0.31625,0.1125 0.63125,0.2275 0.945,0.345 l 2.17,-5.96375 z m 21.45,12.185 -4.085,4.8675 c 0.2575,0.21375 0.51625,0.425 0.77125,0.6425 l 4.0825,-4.86625 z m 15.99,18.782495 -5.49,3.17 c 0.17,0.28875 0.33625,0.57875 0.5025,0.87125 l 5.49,-3.17 z m 8.59875,23.1225 -6.255,1.10375 c 0.0312,0.16375 0.065,0.32625 0.0937,0.49125 0.0288,0.165 0.0525,0.33 0.0813,0.495 l 6.25375,-1.10375 z m -139.89625,0.9875 6.2425,1.10125 c 0.055,-0.33125 0.1125,-0.66125 0.17375,-0.99 l -6.24125,-1.10125 z m 133.65625,23.5675 6.2425,1.1 0.17375,-0.99 -6.24125,-1.1 c -0.0563,0.33 -0.11375,0.66 -0.175,0.99 z m -22.42625,38.14625 4.0775,4.86 0.77,-0.645 -4.08,-4.8625 c -0.25375,0.21625 -0.51,0.43375 -0.7675,0.6475 z m 14.5625,-17.105 5.505,3.17875 0.50125,-0.87 -5.5,-3.175 c -0.165,0.29125 -0.335,0.57875 -0.50625,0.86625 v 0"
         style="fill:#fdfcce;fill-opacity:1;fill-rule:evenodd;stroke:none"
         id="path18" />
      <path
         inkscape:connector-curvature="0"
         d="m 289.39128,93.473515 2.865,2.19875 c 0.20125,-0.26875 0.40625,-0.53375 0.61125,-0.7975 l -2.86375,-2.19875 z m 18.06875,-16.795 1.93875,3.0425 c 0.28,-0.1825 0.56375,-0.36 0.84625,-0.53875 l -1.93875,-3.0425 z m 22.725,-9.6 0.77875,3.51 c 0.325,-0.075 0.6525,-0.14625 0.97875,-0.215 l -0.78,-3.51125 z m 24.63625,-1.25 -0.47,3.57125 c 0.33125,0.04125 0.66375,0.0875 0.99375,0.1325 l 0.47,-3.5725 z m 23.58,7.25 -1.66125,3.18875 c 0.29875,0.15375 0.5925,0.3125 0.88875,0.47125 l 1.66375,-3.19625 z m 19.675,14.88 -2.665,2.44125 c 0.23,0.245 0.45625,0.49 0.68125,0.7375 l 2.66125,-2.44 z m 13.4,20.709995 -3.3175,1.37375 c 0.13125,0.30875 0.255,0.62125 0.38125,0.93125 l 3.32125,-1.37625 z m 5.50875,24.0475 -3.6,0.1575 c 0.0175,0.33125 0.0263,0.6675 0.0375,1.00125 l 3.60625,-0.1575 -0.0437,-1.00125 v 0 z m -138.83,-17.28125 3.42625,1.08 c 0.0987,-0.31875 0.2025,-0.6375 0.305,-0.9575 l -3.42875,-1.08125 z m 132.055,41.63625 3.4275,1.08125 0.3025,-0.96 -3.42625,-1.08 c -0.0975,0.32125 -0.20125,0.64 -0.30375,0.95875 z m -28.36,36.3775 1.9375,3.04125 0.8475,-0.54 -1.9375,-3.04 c -0.28125,0.18125 -0.56375,0.36125 -0.8475,0.53875 z m -94.27375,-97.463745 0.5775,-0.8225 2.95375,2.06875 c -0.195,0.2725 -0.38375,0.5475 -0.57375,0.82375 z m 17.31875,-17.56625 0.82375,-0.575 2.07,2.9575 c -0.27375,0.19 -0.55125,0.37875 -0.82375,0.57375 z m 22.285,-10.58125 0.93125,3.4725 c 0.32125,-0.08875 0.6425,-0.17875 0.9675,-0.2625 l -0.93125,-3.47 z m 24.55875,-2.32375 -0.315,3.59125 c 0.335,0.02625 0.6675,0.05625 0.99875,0.0875 l 0.31375,-3.59125 z m 23.8725,6.215 -1.52125,3.25875 c 0.305,0.14 0.60875,0.28125 0.9125,0.425 l 1.52,-3.25875 z m 20.305,14.00625 0.71,0.71 -2.55375,2.555 c -0.235,-0.23875 -0.47125,-0.475 -0.71,-0.71 z m 14.2925,20.106245 -3.26125,1.52 c 0.145,0.3025 0.2875,0.60625 0.42625,0.91125 l 3.26,-1.52 z m 6.55125,23.78375 -3.59,0.315 c 0.03,0.33125 0.0625,0.66375 0.0875,0.9975 l 3.58875,-0.31375 -0.0863,-0.99875 v 0 z m -139.45125,-11.21 3.47,0.93125 c 0.085,-0.325 0.175,-0.6475 0.26375,-0.97 l -3.47375,-0.93 z m 133.745,35.8375 3.4725,0.93125 0.26,-0.97125 -3.46875,-0.93 c -0.085,0.325 -0.175,0.6475 -0.26375,0.97 z m -26.74625,37.57875 c 0.275,-0.19125 0.5525,-0.38125 0.82375,-0.57375 l 2.06875,2.9525 -0.82375,0.57625 z m -98.43375,-93.257495 3.04125,1.938745 c 0.17875,-0.28375 0.3575,-0.566245 0.54,-0.847495 l -3.04125,-1.9375 z m 16.53625,-18.305 2.1975,2.86625 c 0.265,-0.20625 0.53125,-0.41 0.7975,-0.6125 l -2.19875,-2.86375 z m 21.80125,-11.545 1.08125,3.43 c 0.3175,-0.1025 0.635,-0.20625 0.955,-0.30375 l -1.08,-3.42625 z m 24.43375,-3.39125 -0.1575,3.60625 c 0.33375,0.0125 0.66875,0.02125 1.00125,0.03875 l 0.15875,-3.6 z m 24.12125,5.1675 -1.37625,3.32125 c 0.31,0.1275 0.62125,0.25125 0.93,0.3825 l 1.375,-3.32 z m 20.89625,13.10875 -2.43875,2.66125 c 0.24875,0.225 0.49375,0.4525 0.7375,0.68 l 2.44125,-2.66375 z m 15.15625,19.462495 -3.195,1.66375 c 0.1575,0.295 0.31625,0.59125 0.46875,0.88875 l 3.19,-1.66 z m 7.5825,23.47625 -3.5725,0.47 c 0.0462,0.33 0.0913,0.66125 0.1325,0.9925 l 3.57,-0.47 z m -139.8075,-5.11625 3.5125,0.77875 c 0.07,-0.32875 0.14,-0.655 0.215,-0.9825 l -3.51,-0.7775 z m 135.18125,29.96875 3.50875,0.77875 0.2175,-0.9825 -3.51125,-0.77875 c -0.07,0.3275 -0.14125,0.65625 -0.215,0.9825 z m -25.08375,38.70875 2.1975,2.8625 0.7975,-0.61 -2.1975,-2.86375 c -0.265,0.205 -0.53125,0.40875 -0.7975,0.61125 z m 15.9525,-17.145 3.04,1.93625 0.5375,-0.84625 -3.03875,-1.93625 c -0.17875,0.2825 -0.35625,0.565 -0.53875,0.84625 z m -1.6525,2.43375 c 0.19375,-0.2725 0.3825,-0.54875 0.5725,-0.82375 l 2.955,2.07 -0.57625,0.82125 z m -118.1775,-71.435 3.19,1.66 c 0.1525,-0.2975 0.31125,-0.5925 0.4675,-0.8875 l -3.19375,-1.66375 z m 14.87625,-19.676245 2.44375,2.66625 c 0.245,-0.22875 0.49,-0.45625 0.73875,-0.6825 l -2.44125,-2.6625 z m 20.71375,-13.4025 1.37375,3.31875 c 0.3075,-0.13 0.61875,-0.2525 0.9275,-0.37875 l -1.37625,-3.32125 z m 24.045,-5.50625 0.1575,3.6 c 0.3325,-0.0175 0.6675,-0.02625 1.00125,-0.03875 l -0.1575,-3.60625 z m 24.48,3.04375 -1.08125,3.4275 c 0.32,0.09875 0.63875,0.2025 0.95875,0.305 l 1.08125,-3.43 z m 21.96,11.2375 -2.1975,2.86375 c 0.26625,0.20125 0.5325,0.40375 0.7975,0.61 l 2.195,-2.86375 z m 16.795,18.06875 -3.04375,1.9375 c 0.18375,0.28125 0.3625,0.563745 0.54125,0.847495 l 3.04,-1.937495 z m 9.59875,22.724995 -3.5075,0.7775 c 0.0737,0.32625 0.14375,0.65125 0.21375,0.97875 l 3.51,-0.7775 z m -139.72125,7.09 3.5725,0.46875 c 0.04,-0.3325 0.0863,-0.66375 0.13125,-0.99625 l -3.5725,-0.47 z m 137.2675,18.07125 3.575,0.47 0.13,-0.9975 -3.57125,-0.47 c -0.0412,0.33375 -0.0863,0.665 -0.13375,0.9975 z m -21.605,40.74625 2.44,2.66125 0.74125,-0.6775 -2.4425,-2.665 c -0.245,0.22875 -0.49,0.45625 -0.73875,0.68125 z m -109.76125,-79.60875 3.26,1.52 c 0.13875,-0.305 0.28125,-0.6075 0.42375,-0.91 l -3.25875,-1.52 z m 14.00375,-20.306245 0.71125,-0.71 2.55625,2.555 -0.71125,0.71 z m 20.11,-14.29125 1.51875,3.25875 c 0.3025,-0.1425 0.605,-0.285 0.90875,-0.42375 l -1.51875,-3.25875 z m 23.78125,-6.55375 0.31375,3.5925 c 0.3325,-0.03125 0.665,-0.06125 0.99875,-0.0875 l -0.31375,-3.59125 z m 24.58875,1.97625 -0.93,3.47 c 0.325,0.085 0.6475,0.175 0.97125,0.26375 l 0.93,-3.475 z m 22.43,10.2675 0.8225,0.57625 -2.06875,2.9525 c -0.27125,-0.19375 -0.5475,-0.38375 -0.82375,-0.57375 z m 17.565,17.31875 0.5775,0.82375 -2.95625,2.07 c -0.19125,-0.27625 -0.38,-0.5525 -0.575,-0.825 z m 10.58375,22.284995 -3.47125,0.93 c 0.0875,0.32125 0.1775,0.64375 0.26125,0.9675 l 3.4675,-0.93 z m -139.27875,13.17625 3.59125,0.31375 c 0.0263,-0.33375 0.0575,-0.6675 0.0888,-1 l -3.59375,-0.315 z m 137.92375,12.0675 3.5925,0.31375 0.0875,-1.0025 -3.5925,-0.31375 c -0.025,0.335 -0.0575,0.66875 -0.0875,1.0025 z m -19.8075,41.64875 c 0.23875,-0.23625 0.475,-0.4725 0.71125,-0.71 l 2.55375,2.55375 -0.71,0.71125 z m -113.12875,-74.7425 3.3225,1.375 c 0.12625,-0.31 0.25,-0.6225 0.38,-0.93 l -3.3175,-1.37375 z m 13.10625,-20.899995 2.665,2.44125 c 0.22375,-0.24875 0.4525,-0.49375 0.68,-0.73875 l -2.66625,-2.4425 z m 19.46625,-15.155 1.6625,3.19625 c 0.295,-0.15875 0.58875,-0.315 0.88625,-0.46875 l -1.66,-3.19 z m 23.47375,-7.5825 0.47,3.5725 c 0.33125,-0.045 0.66125,-0.09 0.99375,-0.13125 l -0.47,-3.5725 z m 24.65125,0.9 -0.77875,3.51375 c 0.3275,0.06875 0.65625,0.14 0.9825,0.215 l 0.7775,-3.51 z m 22.85625,9.28125 -1.9375,3.04 c 0.28375,0.1775 0.56625,0.35625 0.84625,0.5375 l 1.93625,-3.04 z m 18.305,16.535 -2.865,2.1975 c 0.20625,0.265 0.41125,0.53125 0.6125,0.79875 l 2.865,-2.19875 z m 11.5425,21.802495 -3.42625,1.08125 c 0.1025,0.3175 0.205,0.63375 0.3025,0.95375 l 3.425,-1.07875 z m -138.57,19.23875 3.60625,0.1575 c 0.0125,-0.335 0.0225,-0.67 0.0387,-1.00375 l -3.60125,-0.1575 -0.0438,1.00375 v 0 z m 138.32,6.03875 3.6025,0.15875 0.0425,-1.00375 -3.6075,-0.15875 c -0.0113,0.335 -0.02,0.67 -0.0375,1.00375 z m -17.97375,42.47375 2.66625,2.44125 0.6775,-0.74 -2.6625,-2.44 c -0.22625,0.24875 -0.45125,0.4925 -0.68125,0.73875 z m 12.75,-19.645 3.315,1.37375 0.385,-0.9275 -3.32,-1.37625 c -0.12625,0.31125 -0.24875,0.62125 -0.38,0.93 z m -1.21125,2.6825 3.25875,1.51875 0.425,-0.90875 -3.26,-1.52 c -0.13875,0.30375 -0.27875,0.6075 -0.42375,0.91 z m -1.32375,2.62625 3.1925,1.66125 0.46375,-0.88875 -3.1875,-1.66 c -0.1525,0.29875 -0.31125,0.5925 -0.46875,0.8875 z m -6.39625,9.86125 2.8625,2.195 0.61125,-0.79625 -2.8625,-2.19625 c -0.20125,0.2675 -0.40625,0.5325 -0.61125,0.7975 v 0"
         style="fill:#fbc809;fill-opacity:1;fill-rule:evenodd;stroke:none"
         id="path20" />
      <path
         inkscape:connector-curvature="0"
         d="m 287.69753,138.35976 v -4.39 c 0,-0.915 0.23625,-1.5875 0.71,-2.01875 0.475,-0.4325 1.1725,-0.64875 2.095,-0.64875 1.08125,0 1.82875,0.26875 2.23875,0.805 0.36125,0.47125 0.54125,1.27125 0.54125,2.40375 v 3.395 c 0,1.07375 -0.1975,1.84125 -0.59125,2.3025 -0.4275,0.50375 -1.165,0.75625 -2.21375,0.75625 -0.905,0 -1.595,-0.21 -2.07,-0.63 -0.47375,-0.41875 -0.71,-1.0775 -0.71,-1.975 z m 3.485,-0.15 v -4.24 c 0,-0.2775 -0.0175,-0.47375 -0.0512,-0.59125 -0.1,-0.33625 -0.31,-0.5025 -0.62875,-0.5025 -0.3025,0 -0.50375,0.1125 -0.60375,0.33875 -0.0662,0.15125 -0.1,0.4025 -0.1,0.755 v 4.24 c 0,0.37625 0.0288,0.64 0.0875,0.79125 0.10125,0.26 0.30625,0.39125 0.61625,0.39125 0.3025,0 0.50375,-0.15625 0.60375,-0.46625 0.0512,-0.15875 0.0762,-0.39875 0.0762,-0.71625 v 0"
         style="fill:#fdfcce;fill-opacity:1;fill-rule:nonzero;stroke:none"
         id="path22" />
      <path
         inkscape:connector-curvature="0"
         d="m 296.23628,119.39976 v -3.9525 c 0,-0.8225 0.2125,-1.42875 0.63875,-1.8175 0.4275,-0.38875 1.055,-0.5825 1.88625,-0.5825 0.97375,0 1.645,0.24125 2.01375,0.725 0.325,0.42125 0.4875,1.1425 0.4875,2.1625 v 3.05625 c 0,0.96625 -0.1775,1.65625 -0.5325,2.07125 -0.385,0.4525 -1.04875,0.68 -1.99125,0.68 -0.81625,0 -1.43625,-0.18875 -1.86375,-0.56625 -0.42625,-0.3775 -0.63875,-0.97 -0.63875,-1.77625 z m 3.13625,-0.13625 v -3.81625 c 0,-0.24875 -0.015,-0.42625 -0.0462,-0.5325 -0.09,-0.30125 -0.27875,-0.4525 -0.565,-0.4525 -0.2725,0 -0.45375,0.1025 -0.54375,0.30625 -0.0613,0.135 -0.0913,0.3625 -0.0913,0.67875 v 3.81625 c 0,0.33875 0.0263,0.5775 0.08,0.7125 0.0913,0.23375 0.275,0.35125 0.555,0.35125 0.27125,0 0.45125,-0.14 0.5425,-0.41875 0.045,-0.14375 0.0687,-0.36 0.0687,-0.645 v 0 z m -6.96375,2.275 v -5.72875 h -1.7325 v -1.3025 c 0.54375,0 1.0075,-0.0875 1.3925,-0.26125 0.48375,-0.2175 0.77,-0.5575 0.86125,-1.0175 h 1.27875 v 8.31 h -1.8 v 0"
         style="fill:#fdfcce;fill-opacity:1;fill-rule:nonzero;stroke:none"
         id="path24" />
      <path
         inkscape:connector-curvature="0"
         d="m 305.85003,102.45851 v -3.952495 c 0,-0.82125 0.2125,-1.4275 0.63875,-1.81625 0.42625,-0.38875 1.05375,-0.5825 1.88625,-0.5825 0.9725,0 1.64375,0.24125 2.01375,0.725 0.325,0.4225 0.4875,1.14375 0.4875,2.1625 v 3.056245 c 0,0.96625 -0.17875,1.65625 -0.5325,2.07125 -0.385,0.45375 -1.04875,0.68 -1.9925,0.68 -0.815,0 -1.43625,-0.18875 -1.8625,-0.56625 -0.42625,-0.3775 -0.63875,-0.97 -0.63875,-1.7775 z m 3.135,-0.13625 v -3.816245 c 0,-0.2475 -0.015,-0.425 -0.045,-0.53 -0.0913,-0.3025 -0.27875,-0.45375 -0.565,-0.45375 -0.2725,0 -0.45375,0.1025 -0.545,0.30625 -0.06,0.135 -0.09,0.3625 -0.09,0.6775 v 3.816245 c 0,0.34 0.0263,0.57875 0.08,0.71375 0.09,0.23375 0.27375,0.35125 0.555,0.35125 0.27125,0 0.45125,-0.14 0.5425,-0.41875 0.045,-0.14375 0.0675,-0.35875 0.0675,-0.64625 z m -7.05375,-3.146245 h -1.8 v -0.4425 c 0,-0.845 0.22375,-1.49375 0.6675,-1.9475 0.445,-0.4525 1.09125,-0.67875 1.93625,-0.67875 0.78625,0 1.39125,0.19375 1.8175,0.5825 0.42625,0.38875 0.64,0.9725 0.64,1.75 0,0.50625 -0.0825,0.94 -0.25,1.3025 -0.165,0.362495 -0.4375,0.738745 -0.81375,1.131245 l -0.73625,0.71375 c -0.2575,0.24875 -0.46875,0.47125 -0.635,0.6675 -0.27875,0.3325 -0.44125,0.605 -0.48625,0.81625 h 2.92125 v 1.5275 h -5.06125 v -0.2825 c 0,-0.6425 0.18125,-1.295 0.54125,-1.95875 0.27125,-0.49875 0.6825,-1.04875 1.23125,-1.65375 l 0.85625,-0.904995 c 0.19625,-0.22 0.33375,-0.4375 0.4175,-0.6575 0.0825,-0.21875 0.12375,-0.47875 0.12375,-0.78125 0,-0.24875 -0.0525,-0.44875 -0.15875,-0.6 -0.1275,-0.18125 -0.31375,-0.26 -0.55375,-0.2375 -0.26375,0 -0.45,0.15125 -0.555,0.45375 -0.0675,0.195 -0.1025,0.46 -0.1025,0.79125 v 0.40875"
         style="fill:#fdfcce;fill-opacity:1;fill-rule:nonzero;stroke:none"
         id="path26" />
      <path
         inkscape:connector-curvature="0"
         d="m 319.50628,90.751015 v -3.95125 c 0,-0.8225 0.21125,-1.42875 0.63875,-1.8175 0.42625,-0.38875 1.055,-0.5825 1.88625,-0.5825 0.9725,0 1.645,0.24125 2.01375,0.725 0.325,0.42125 0.4875,1.1425 0.4875,2.16125 v 3.05625 c 0,0.9675 -0.1775,1.6575 -0.53125,2.0725 -0.38625,0.4525 -1.05,0.68 -1.99375,0.68 -0.815,0 -1.43625,-0.18875 -1.8625,-0.56625 -0.4275,-0.3775 -0.63875,-0.97 -0.63875,-1.7775 z m 3.135,-0.13625 v -3.815 c 0,-0.24875 -0.015,-0.4275 -0.045,-0.5325 -0.0913,-0.3025 -0.27875,-0.4525 -0.565,-0.4525 -0.2725,0 -0.4525,0.10125 -0.54375,0.30625 -0.0612,0.135 -0.0913,0.36125 -0.0913,0.67875 v 3.815 c 0,0.34 0.0263,0.5775 0.0788,0.71375 0.0913,0.2325 0.27625,0.35 0.55625,0.35 0.27125,0 0.4525,-0.13875 0.5425,-0.4175 0.0462,-0.145 0.0675,-0.36 0.0675,-0.64625 z m -7.33625,-1.37 v -1.35875 h 0.1475 c 0.22625,0 0.41875,-0.0125 0.5775,-0.03875 0.15875,-0.02625 0.3,-0.08375 0.42375,-0.17 0.125,-0.0875 0.22,-0.22875 0.28375,-0.425 0.0638,-0.19625 0.0962,-0.3775 0.0962,-0.5425 0,-0.2875 -0.0425,-0.495 -0.12625,-0.62375 -0.1075,-0.16625 -0.29375,-0.24875 -0.55375,-0.24875 -0.2625,0 -0.4375,0.1175 -0.53,0.35 -0.0613,0.1525 -0.0925,0.38625 -0.0925,0.7025 v 0.18125 h -1.78875 l 0.0125,-0.6225 c 0,-0.59625 0.26,-1.09375 0.78,-1.49375 0.4825,-0.37 1.04125,-0.555 1.67625,-0.555 0.76125,0 1.34625,0.17 1.75375,0.51 0.445,0.36875 0.66875,0.9275 0.66875,1.675 0,0.46 -0.0888,0.8425 -0.26625,1.15 -0.1775,0.305 -0.46875,0.55125 -0.8775,0.74125 0.48375,0.1275 0.8375,0.40375 1.065,0.82625 0.1875,0.34625 0.2825,0.77625 0.2825,1.28875 0,0.84 -0.22625,1.46625 -0.67875,1.88125 -0.45375,0.415 -1.1025,0.6225 -1.9475,0.6225 -0.7775,0 -1.38125,-0.20375 -1.8125,-0.61375 -0.42875,-0.41 -0.64375,-0.9925 -0.64375,-1.75125 v -0.58 h 1.77625 v 0.275 c 0,0.38125 0.035,0.6575 0.1025,0.83125 0.105,0.28125 0.3125,0.4225 0.6225,0.4225 0.27125,0 0.46375,-0.12 0.5775,-0.36375 0.075,-0.16625 0.1125,-0.40875 0.1125,-0.72875 0,-0.33375 -0.0387,-0.59375 -0.1175,-0.78375 -0.08,-0.18875 -0.17875,-0.32 -0.295,-0.39375 -0.1175,-0.07125 -0.25125,-0.11625 -0.4025,-0.135 -0.15125,-0.02 -0.325,-0.02875 -0.52,-0.02875 h -0.1925 c -0.0538,0 -0.0913,0 -0.11375,0 v 0"
         style="fill:#fdfcce;fill-opacity:1;fill-rule:nonzero;stroke:none"
         id="path28" />
      <path
         inkscape:connector-curvature="0"
         d="m 335.93878,84.149765 v -3.95125 c 0,-0.8225 0.21375,-1.42875 0.64,-1.8175 0.42625,-0.38875 1.05375,-0.5825 1.885,-0.5825 0.97375,0 1.64625,0.24125 2.015,0.725 0.32375,0.4225 0.4875,1.1425 0.4875,2.16125 v 3.0575 c 0,0.96625 -0.1775,1.65625 -0.5325,2.07125 -0.385,0.4525 -1.04875,0.68 -1.9925,0.68 -0.815,0 -1.43625,-0.18875 -1.8625,-0.56625 -0.42625,-0.3775 -0.64,-0.97 -0.64,-1.7775 z m 3.13625,-0.13625 v -3.815 c 0,-0.24875 -0.015,-0.42625 -0.0463,-0.5325 -0.09,-0.30125 -0.2775,-0.4525 -0.565,-0.4525 -0.27125,0 -0.4525,0.1025 -0.54375,0.30625 -0.06,0.135 -0.09,0.3625 -0.09,0.67875 v 3.815 c 0,0.34 0.0263,0.5775 0.0787,0.71375 0.0913,0.23375 0.27625,0.35125 0.555,0.35125 0.2725,0 0.45375,-0.14 0.54375,-0.42 0.045,-0.1425 0.0675,-0.3575 0.0675,-0.645 v 0 z m -9.01125,0.6575 v -1.58625 l 2.64875,-5.105 h 1.98125 v 5.275 h 0.74625 v 1.41625 h -0.74625 v 1.61875 h -1.8 v -1.61875 z m 1.425,-1.41625 h 1.405 v -2.7525 l -1.405,2.7525 v 0"
         style="fill:#fdfcce;fill-opacity:1;fill-rule:nonzero;stroke:none"
         id="path30" />
      <path
         inkscape:connector-curvature="0"
         d="m 356.05378,83.893515 v -3.95125 c 0,-0.8225 0.2125,-1.42875 0.63875,-1.8175 0.42625,-0.38875 1.055,-0.5825 1.88625,-0.5825 0.9725,0 1.645,0.24125 2.01375,0.725 0.325,0.4225 0.4875,1.14375 0.4875,2.1625 v 3.05625 c 0,0.9675 -0.1775,1.65625 -0.5325,2.07125 -0.385,0.45375 -1.04875,0.68 -1.9925,0.68 -0.815,0 -1.43625,-0.18875 -1.8625,-0.56625 -0.42625,-0.3775 -0.63875,-0.97 -0.63875,-1.7775 z m 3.135,-0.13625 v -3.815 c 0,-0.24875 -0.015,-0.42625 -0.045,-0.53125 -0.0913,-0.3025 -0.27875,-0.45375 -0.565,-0.45375 -0.2725,0 -0.45375,0.1025 -0.54375,0.30625 -0.0613,0.13625 -0.0913,0.36125 -0.0913,0.67875 v 3.815 c 0,0.34 0.0275,0.57875 0.08,0.71375 0.09,0.23375 0.27375,0.35 0.555,0.35 0.27125,0 0.4525,-0.13875 0.54375,-0.4175 0.0437,-0.14375 0.0663,-0.35875 0.0663,-0.64625 z m -7.05375,-1.4025 h -1.66375 l 0.215,-4.63125 h 4.3925 v 1.52875 h -2.955 l -0.0788,1.58375 c 0.3925,-0.34625 0.83375,-0.52 1.325,-0.52 0.7925,0 1.35375,0.30875 1.68625,0.9275 0.24875,0.46875 0.37375,1.1375 0.37375,2.005 0,0.98125 -0.185,1.71 -0.555,2.185 -0.415,0.53625 -1.0975,0.80375 -2.04875,0.80375 -0.7175,0 -1.265,-0.16625 -1.64125,-0.49875 -0.3775,-0.33125 -0.635,-0.8525 -0.77,-1.5625 v -0.645 h 1.78875 c 0.0225,0.26375 0.0487,0.52875 0.0788,0.7925 0.0825,0.3325 0.27625,0.4975 0.5775,0.4975 0.29375,0 0.49,-0.17625 0.58875,-0.53125 0.06,-0.21125 0.0913,-0.50125 0.0913,-0.87125 v -0.27125 c 0,-0.415 -0.035,-0.72125 -0.1025,-0.9175 -0.11375,-0.3325 -0.32375,-0.49875 -0.63375,-0.49875 -0.4075,0 -0.63,0.20875 -0.66875,0.62375 v 0"
         style="fill:#fdfcce;fill-opacity:1;fill-rule:nonzero;stroke:none"
         id="path32" />
      <path
         inkscape:connector-curvature="0"
         d="m 372.23003,90.293515 v -3.95125 c 0,-0.8225 0.2125,-1.42875 0.64,-1.8175 0.42625,-0.38875 1.0525,-0.5825 1.885,-0.5825 0.97375,0 1.645,0.24125 2.015,0.725 0.325,0.4225 0.48625,1.1425 0.48625,2.1625 v 3.05625 c 0,0.96625 -0.1775,1.65625 -0.53125,2.07125 -0.38625,0.45375 -1.04875,0.68 -1.9925,0.68 -0.815,0 -1.43625,-0.18875 -1.8625,-0.56625 -0.4275,-0.3775 -0.64,-0.97 -0.64,-1.7775 z m 3.13625,-0.135 v -3.81625 c 0,-0.24875 -0.015,-0.42625 -0.045,-0.5325 -0.0925,-0.30125 -0.28,-0.4525 -0.56625,-0.4525 -0.27125,0 -0.45375,0.1025 -0.54375,0.30625 -0.0612,0.135 -0.09,0.3625 -0.09,0.67875 v 3.81625 c 0,0.33875 0.0263,0.57625 0.0788,0.7125 0.09,0.23375 0.275,0.35125 0.555,0.35125 0.27125,0 0.4525,-0.14 0.54375,-0.41875 0.0437,-0.14375 0.0675,-0.35875 0.0675,-0.645 v 0 z m -3.8725,-4.02 h -1.8 c 0,-0.24875 -0.0387,-0.43375 -0.11375,-0.555 -0.0975,-0.15 -0.2675,-0.22625 -0.50875,-0.22625 -0.25,0 -0.4225,0.125 -0.52,0.375 -0.07,0.18 -0.1025,0.42875 -0.1025,0.74625 v 0.905 c 0.225,-0.17375 0.42375,-0.28625 0.59375,-0.34 0.17,-0.0525 0.40125,-0.07875 0.69625,-0.07875 0.70125,0 1.20875,0.265 1.5175,0.79375 0.24125,0.415 0.3625,0.99875 0.3625,1.75375 0,1.0425 -0.17,1.8 -0.51,2.275 -0.4075,0.5675 -1.105,0.85 -2.09375,0.85 -0.89125,0 -1.53625,-0.285 -1.9375,-0.8525 -0.34625,-0.4925 -0.52,-1.21 -0.52,-2.15 v -2.25125 c 0,-1.08625 0.125,-1.87625 0.375,-2.37375 0.36125,-0.71125 1.02125,-1.0675 1.98,-1.0675 0.86,0 1.49,0.15125 1.89,0.4525 0.46125,0.3475 0.69125,0.92875 0.69125,1.74375 z m -2.41125,5.08375 c 0.24125,0 0.41375,-0.12125 0.52,-0.3625 0.0838,-0.18875 0.125,-0.4375 0.125,-0.7475 v -0.84875 c 0,-0.2725 -0.0412,-0.475 -0.125,-0.61125 -0.10625,-0.18125 -0.28625,-0.27125 -0.54375,-0.27125 -0.22625,0 -0.385,0.07875 -0.475,0.2375 -0.09,0.15875 -0.135,0.36625 -0.135,0.6225 v 1.245 c 0,0.21875 0.0512,0.39625 0.1525,0.5325 0.10125,0.135 0.2625,0.20375 0.48125,0.20375 v 0"
         style="fill:#fdfcce;fill-opacity:1;fill-rule:nonzero;stroke:none"
         id="path34" />
      <path
         inkscape:connector-curvature="0"
         d="m 387.35253,102.20726 v -3.952495 c 0,-0.8225 0.2125,-1.42875 0.6375,-1.8175 0.42625,-0.38875 1.055,-0.5825 1.885,-0.5825 0.975,0 1.64625,0.24125 2.01625,0.725 0.32375,0.4225 0.48625,1.14375 0.48625,2.1625 v 3.056245 c 0,0.96625 -0.17625,1.65625 -0.53125,2.0725 -0.385,0.45125 -1.04875,0.67875 -1.9925,0.67875 -0.81625,0 -1.4375,-0.18875 -1.86375,-0.565 -0.425,-0.3775 -0.6375,-0.97125 -0.6375,-1.7775 z m 3.13375,-0.1375 v -3.814995 c 0,-0.24875 -0.0138,-0.42625 -0.045,-0.53125 -0.09,-0.3025 -0.2775,-0.45375 -0.56625,-0.45375 -0.27125,0 -0.4525,0.1025 -0.54125,0.30625 -0.0612,0.135 -0.0925,0.3625 -0.0925,0.67875 v 3.814995 c 0,0.34 0.0275,0.57875 0.08,0.71375 0.0913,0.23375 0.27625,0.35125 0.55375,0.35125 0.2725,0 0.45375,-0.13875 0.545,-0.41875 0.045,-0.14375 0.0663,-0.35875 0.0663,-0.64625 v 0 z m -8.8425,-4.504995 v -1.52875 h 4.89125 v 1.415 c -0.33125,0.58875 -0.63125,1.24125 -0.89375,1.95875 -0.21875,0.596245 -0.43,1.286245 -0.63375,2.072495 -0.12875,0.4825 -0.2275,0.935 -0.295,1.35875 -0.0675,0.42125 -0.13625,0.92375 -0.20375,1.505 h -1.95875 c 0,-0.54375 0.155,-1.35 0.465,-2.4225 0.28,-0.96625 0.56125,-1.7625 0.85,-2.388745 l 0.8825,-1.97 h -3.10375 v 0"
         style="fill:#fdfcce;fill-opacity:1;fill-rule:nonzero;stroke:none"
         id="path36" />
      <path
         inkscape:connector-curvature="0"
         d="m 397.39503,119.34851 v -3.9525 c 0,-0.8225 0.2125,-1.4275 0.63875,-1.81625 0.425,-0.38875 1.05375,-0.5825 1.88375,-0.5825 0.975,0 1.64625,0.24125 2.01625,0.72375 0.32375,0.4225 0.48625,1.1425 0.48625,2.1625 v 3.05625 c 0,0.9675 -0.17625,1.65625 -0.53125,2.07125 -0.385,0.45375 -1.04875,0.68125 -1.9925,0.68125 -0.81625,0 -1.4375,-0.19 -1.8625,-0.5675 -0.42625,-0.3775 -0.63875,-0.97 -0.63875,-1.77625 z m 3.13625,-0.13625 v -3.81625 c 0,-0.24875 -0.0162,-0.42625 -0.0462,-0.5325 -0.0913,-0.3 -0.28,-0.45125 -0.5675,-0.45125 -0.27,0 -0.45125,0.10125 -0.5425,0.305 -0.06,0.13625 -0.09,0.3625 -0.09,0.67875 v 3.81625 c 0,0.33875 0.0263,0.5775 0.0788,0.7125 0.09,0.23375 0.27625,0.35125 0.55375,0.35125 0.2725,0 0.45375,-0.13875 0.545,-0.41875 0.0437,-0.1425 0.0687,-0.35875 0.0687,-0.645 v 0 z m -7.74625,-2.185 c -0.355,-0.205 -0.60875,-0.45125 -0.76375,-0.7425 -0.155,-0.29 -0.2325,-0.6425 -0.2325,-1.0575 0,-0.7325 0.22,-1.2875 0.6575,-1.665 0.43625,-0.3775 1.03375,-0.565 1.78875,-0.565 0.77,0 1.3725,0.18625 1.81125,0.56 0.4375,0.37375 0.65625,0.93 0.65625,1.67 0,0.39125 -0.075,0.7325 -0.22625,1.01875 -0.1725,0.31625 -0.44125,0.57 -0.80375,0.75875 0.42375,0.25625 0.7075,0.53375 0.855,0.83125 0.1475,0.29875 0.22,0.71125 0.22,1.24125 0,0.91125 -0.21875,1.57625 -0.65625,1.99125 -0.4375,0.41625 -1.10875,0.62375 -2.01375,0.62375 -0.72625,0 -1.29625,-0.23125 -1.71125,-0.69125 -0.415,-0.46 -0.6225,-1.1025 -0.6225,-1.92375 0,-0.49875 0.0575,-0.87625 0.17,-1.1325 0.14375,-0.3175 0.43375,-0.62375 0.87125,-0.9175 z m 0.805,-1.62 c 0,0.2725 0.0375,0.4875 0.1125,0.64625 0.10625,0.21875 0.27875,0.3275 0.52125,0.3275 0.26375,0 0.4525,-0.10875 0.56625,-0.3275 0.09,-0.17375 0.135,-0.40375 0.135,-0.69125 0,-0.26375 -0.0412,-0.4825 -0.12375,-0.65625 -0.11375,-0.22625 -0.29125,-0.33875 -0.5325,-0.33875 -0.27125,0 -0.46,0.10875 -0.56625,0.3275 -0.075,0.15875 -0.1125,0.39625 -0.1125,0.7125 z m 0.63375,4.9025 c 0.30375,0 0.50875,-0.15125 0.61375,-0.4525 0.0575,-0.18125 0.0875,-0.4675 0.0875,-0.86125 0,-0.39125 -0.03,-0.6675 -0.0875,-0.825 -0.105,-0.2875 -0.31625,-0.43125 -0.6375,-0.43125 -0.27375,0 -0.45875,0.11375 -0.555,0.34 -0.0675,0.15125 -0.1,0.38875 -0.1,0.71375 v 0.2375 c 0,0.36125 0.0288,0.63375 0.0875,0.815 0.10375,0.30875 0.30125,0.46375 0.59125,0.46375 v 0"
         style="fill:#fdfcce;fill-opacity:1;fill-rule:nonzero;stroke:none"
         id="path38" />
      <path
         inkscape:connector-curvature="0"
         d="m 400.56128,138.77476 v -3.95125 c 0,-0.82125 0.2125,-1.4275 0.63875,-1.81625 0.42625,-0.38875 1.055,-0.58375 1.88625,-0.58375 0.9725,0 1.64375,0.24125 2.01375,0.725 0.325,0.4225 0.4875,1.14375 0.4875,2.1625 v 3.05625 c 0,0.96625 -0.17875,1.6575 -0.5325,2.0725 -0.385,0.4525 -1.04875,0.67875 -1.9925,0.67875 -0.815,0 -1.43625,-0.18875 -1.8625,-0.56625 -0.42625,-0.37625 -0.63875,-0.97 -0.63875,-1.7775 z m 3.135,-0.13625 v -3.815 c 0,-0.24875 -0.015,-0.42625 -0.045,-0.53125 -0.0913,-0.3025 -0.28,-0.45375 -0.565,-0.45375 -0.2725,0 -0.45375,0.1025 -0.545,0.30625 -0.06,0.135 -0.09,0.3625 -0.09,0.67875 v 3.815 c 0,0.34 0.0263,0.57875 0.0788,0.71375 0.0913,0.23375 0.275,0.35125 0.55625,0.35125 0.27,0 0.45125,-0.14 0.54125,-0.41875 0.045,-0.14375 0.0688,-0.35875 0.0688,-0.64625 v 0 z m -8.68375,0.28375 h 1.8 c 0,0.24875 0.0425,0.44125 0.13125,0.5775 0.0875,0.135 0.25375,0.20375 0.49625,0.20375 0.25125,0 0.4275,-0.125 0.5275,-0.37375 0.0687,-0.18125 0.1025,-0.43 0.1025,-0.7475 v -0.905 c -0.2275,0.17375 -0.4275,0.28625 -0.5975,0.33875 -0.16875,0.0537 -0.40375,0.08 -0.6975,0.08 -0.70625,0 -1.21375,-0.26375 -1.52375,-0.7925 -0.2425,-0.415 -0.3625,-1 -0.3625,-1.755 0,-1.04125 0.17,-1.8 0.5075,-2.27625 0.40875,-0.565 1.10625,-0.84875 2.095,-0.84875 0.89125,0 1.53625,0.285 1.9375,0.85375 0.34625,0.4925 0.52,1.20875 0.52,2.14875 v 2.25125 c 0,1.08625 -0.125,1.87625 -0.37375,2.3725 -0.3625,0.7125 -1.0225,1.06875 -1.98125,1.06875 -0.86,0 -1.49,-0.15125 -1.89125,-0.4525 -0.46,-0.3475 -0.69,-0.92875 -0.69,-1.74375 z m 2.405,-5.08375 c -0.26875,0 -0.4525,0.155 -0.5475,0.465 -0.0612,0.18875 -0.0913,0.47125 -0.0913,0.84875 v 0.1925 c 0,0.4375 0.0175,0.72375 0.0563,0.86 0.09,0.3175 0.295,0.47625 0.61125,0.47625 0.25625,0 0.435,-0.11625 0.5325,-0.35125 0.06,-0.15125 0.0913,-0.385 0.0913,-0.7025 v -0.22625 c 0,-0.0663 0,-0.14125 0,-0.22 0,-0.08 0,-0.16125 0,-0.24375 0,-0.34 -0.0337,-0.58875 -0.1025,-0.7475 -0.0962,-0.23375 -0.28,-0.35125 -0.55,-0.35125 v 0"
         style="fill:#fdfcce;fill-opacity:1;fill-rule:nonzero;stroke:none"
         id="path40" />
      <path
         inkscape:connector-curvature="0"
         d="m 396.60878,157.03226 v -3.95125 c 0,-0.82125 0.2125,-1.4275 0.63875,-1.81625 0.425,-0.38875 1.05375,-0.5825 1.885,-0.5825 0.97375,0 1.64625,0.24 2.01625,0.72375 0.32375,0.4225 0.485,1.1425 0.485,2.1625 v 3.05625 c 0,0.9675 -0.17625,1.6575 -0.53,2.0725 -0.38625,0.4525 -1.05,0.67875 -1.99375,0.67875 -0.815,0 -1.4375,-0.18875 -1.8625,-0.565 -0.42625,-0.3775 -0.63875,-0.97125 -0.63875,-1.77875 z m 3.135,-0.135 v -3.81625 c 0,-0.2475 -0.0138,-0.42625 -0.045,-0.5325 -0.0913,-0.3 -0.27875,-0.4525 -0.56625,-0.4525 -0.27125,0 -0.4525,0.1025 -0.5425,0.30625 -0.0613,0.13625 -0.09,0.3625 -0.09,0.67875 v 3.81625 c 0,0.33875 0.025,0.5775 0.0775,0.7125 0.09,0.235 0.27625,0.35125 0.555,0.35125 0.27125,0 0.45375,-0.13875 0.54375,-0.41875 0.045,-0.14375 0.0675,-0.35875 0.0675,-0.645 z m -8.79625,0.135 v -3.95125 c 0,-0.82125 0.2125,-1.4275 0.6375,-1.81625 0.4275,-0.38875 1.055,-0.5825 1.88625,-0.5825 0.97375,0 1.64625,0.24 2.015,0.72375 0.325,0.4225 0.4875,1.1425 0.4875,2.1625 v 3.05625 c 0,0.9675 -0.1775,1.6575 -0.5325,2.0725 -0.385,0.4525 -1.04875,0.67875 -1.99125,0.67875 -0.81625,0 -1.4375,-0.18875 -1.865,-0.565 -0.425,-0.3775 -0.6375,-0.97125 -0.6375,-1.77875 z m 3.135,-0.135 v -3.81625 c 0,-0.2475 -0.0138,-0.42625 -0.045,-0.5325 -0.0913,-0.3 -0.27875,-0.4525 -0.56625,-0.4525 -0.27125,0 -0.4525,0.1025 -0.5425,0.30625 -0.0613,0.13625 -0.0913,0.3625 -0.0913,0.67875 v 3.81625 c 0,0.33875 0.0263,0.5775 0.08,0.7125 0.09,0.235 0.275,0.35125 0.55375,0.35125 0.2725,0 0.4525,-0.13875 0.54375,-0.41875 0.045,-0.14375 0.0675,-0.35875 0.0675,-0.645 v 0 z m -6.9625,2.275 v -5.72875 h -1.7325 v -1.30125 c 0.54375,0 1.0075,-0.0875 1.3925,-0.26125 0.4825,-0.21875 0.77,-0.5575 0.86,-1.01875 h 1.28 v 8.31 h -1.8 v 0"
         style="fill:#fdfcce;fill-opacity:1;fill-rule:nonzero;stroke:none"
         id="path42" />
      <path
         inkscape:connector-curvature="0"
         d="m 387.84253,172.85851 v -3.9525 c 0,-0.82125 0.2125,-1.4275 0.64,-1.8175 0.42625,-0.3875 1.05375,-0.58125 1.885,-0.58125 0.97375,0 1.645,0.24 2.01375,0.725 0.325,0.42125 0.48875,1.1425 0.48875,2.1625 v 3.055 c 0,0.96625 -0.17875,1.6575 -0.5325,2.0725 -0.38625,0.4525 -1.05,0.68 -1.9925,0.68 -0.815,0 -1.43625,-0.19 -1.8625,-0.56625 -0.4275,-0.3775 -0.64,-0.97 -0.64,-1.7775 z m 3.13625,-0.13625 v -3.81625 c 0,-0.2475 -0.015,-0.42625 -0.0462,-0.53125 -0.09,-0.3025 -0.27875,-0.4525 -0.565,-0.4525 -0.2725,0 -0.45375,0.10125 -0.54375,0.305 -0.0612,0.13625 -0.09,0.3625 -0.09,0.67875 v 3.81625 c 0,0.34 0.025,0.5775 0.0787,0.7125 0.0913,0.235 0.275,0.35125 0.555,0.35125 0.2725,0 0.4525,-0.13875 0.5425,-0.41875 0.045,-0.1425 0.0687,-0.3575 0.0687,-0.645 v 0 z m -6.96375,2.275 v -5.72875 h -1.7325 v -1.30125 c 0.545,0 1.00875,-0.0862 1.3925,-0.26125 0.48375,-0.2175 0.77,-0.5575 0.86125,-1.0175 h 1.27875 v 8.30875 z m -5.66125,0 v -5.72875 h -1.73125 v -1.30125 c 0.5425,0 1.00625,-0.0862 1.3925,-0.26125 0.4825,-0.2175 0.77,-0.5575 0.86,-1.0175 h 1.27875 v 8.30875 h -1.8 v 0"
         style="fill:#fdfcce;fill-opacity:1;fill-rule:nonzero;stroke:none"
         id="path44" />
      <path
         inkscape:connector-curvature="0"
         d="m 374.60378,184.71601 v -3.95125 c 0,-0.8225 0.2125,-1.42875 0.64,-1.8175 0.42625,-0.38875 1.055,-0.5825 1.885,-0.5825 0.97375,0 1.645,0.24125 2.015,0.725 0.32375,0.42125 0.4875,1.1425 0.4875,2.1625 v 3.05625 c 0,0.96625 -0.17875,1.65625 -0.5325,2.07125 -0.385,0.4525 -1.05,0.68 -1.9925,0.68 -0.815,0 -1.43625,-0.19 -1.8625,-0.56625 -0.4275,-0.3775 -0.64,-0.97 -0.64,-1.7775 z m 3.13625,-0.13625 v -3.815 c 0,-0.24875 -0.015,-0.4275 -0.045,-0.5325 -0.09,-0.30125 -0.28,-0.4525 -0.56625,-0.4525 -0.2725,0 -0.4525,0.10125 -0.54375,0.30625 -0.06,0.135 -0.09,0.36125 -0.09,0.67875 v 3.815 c 0,0.33875 0.0263,0.5775 0.08,0.71375 0.09,0.23375 0.27375,0.35125 0.55375,0.35125 0.2725,0 0.4525,-0.14 0.54375,-0.41875 0.045,-0.14375 0.0675,-0.36 0.0675,-0.64625 z m -7.05375,-3.1475 h -1.8 v -0.44125 c 0,-0.845 0.2225,-1.49375 0.6675,-1.9475 0.44625,-0.4525 1.09,-0.67875 1.935,-0.67875 0.78625,0 1.3925,0.19375 1.8175,0.5825 0.42625,0.38875 0.64125,0.97125 0.64125,1.75 0,0.505 -0.0837,0.93875 -0.25,1.3025 -0.165,0.36125 -0.4375,0.73875 -0.815,1.13125 l -0.735,0.7125 c -0.2575,0.24875 -0.4675,0.4725 -0.635,0.66875 -0.27875,0.3325 -0.44125,0.60375 -0.48625,0.815 h 2.92125 v 1.5275 h -5.06125 v -0.2825 c 0,-0.64 0.18125,-1.29375 0.54125,-1.95875 0.27125,-0.4975 0.68125,-1.04875 1.23125,-1.6525 l 0.85625,-0.90625 c 0.19625,-0.21875 0.33375,-0.4375 0.4175,-0.65625 0.0825,-0.21875 0.12375,-0.48 0.12375,-0.78 0,-0.25 -0.0525,-0.45 -0.15875,-0.60125 -0.1275,-0.18125 -0.31375,-0.26 -0.55375,-0.2375 -0.265,0 -0.45,0.15125 -0.555,0.4525 -0.0675,0.19625 -0.1025,0.46125 -0.1025,0.7925 z m -5.57,5.4225 v -5.7275 h -1.7325 v -1.3025 c 0.5425,0 1.0075,-0.0863 1.3925,-0.26125 0.4825,-0.2175 0.77,-0.5575 0.86125,-1.0175 h 1.2775 v 8.30875 h -1.79875 v 0"
         style="fill:#fdfcce;fill-opacity:1;fill-rule:nonzero;stroke:none"
         id="path46" />
      <path
         inkscape:connector-curvature="0"
         d="m 314.93253,137.88601 v -2.63375 c 0,-0.54875 0.1425,-0.9525 0.42625,-1.2125 0.28375,-0.25875 0.7025,-0.3875 1.2575,-0.3875 0.64875,0 1.09625,0.16 1.3425,0.4825 0.21625,0.28125 0.325,0.7625 0.325,1.44125 v 2.0375 c 0,0.64375 -0.1175,1.105 -0.355,1.38125 -0.25625,0.3025 -0.69875,0.45125 -1.32875,0.45125 -0.5425,0 -0.9575,-0.125 -1.24125,-0.37625 -0.28375,-0.25125 -0.42625,-0.64625 -0.42625,-1.18375 z m 2.09,-0.0913 v -2.5425 c 0,-0.16625 -0.01,-0.28625 -0.03,-0.355 -0.0587,-0.2025 -0.18625,-0.3025 -0.37625,-0.3025 -0.18125,0 -0.3025,0.0675 -0.3625,0.20375 -0.04,0.09 -0.0613,0.24125 -0.0613,0.45375 v 2.5425 c 0,0.22625 0.0188,0.385 0.0538,0.475 0.06,0.15625 0.1825,0.235 0.37,0.235 0.18125,0 0.30125,-0.0937 0.36125,-0.28 0.03,-0.095 0.045,-0.23875 0.045,-0.43 v 0"
         style="fill:#fbc809;fill-opacity:1;fill-rule:nonzero;stroke:none"
         id="path48" />
      <path
         inkscape:connector-curvature="0"
         d="m 320.74878,124.45476 v -2.19375 c 0,-0.4575 0.11875,-0.79375 0.355,-1.00875 0.2375,-0.21625 0.58625,-0.325 1.0475,-0.325 0.54125,0 0.91375,0.135 1.12,0.4025 0.18,0.235 0.27,0.635 0.27,1.20125 v 1.69875 c 0,0.53625 -0.0987,0.92 -0.295,1.15 -0.21375,0.25125 -0.5825,0.3775 -1.1075,0.3775 -0.4525,0 -0.7975,-0.105 -1.035,-0.315 -0.23625,-0.20875 -0.355,-0.53875 -0.355,-0.9875 z m 1.7425,-0.075 v -2.11875 c 0,-0.13875 -0.009,-0.23625 -0.0263,-0.29625 -0.05,-0.1675 -0.15375,-0.25125 -0.31375,-0.25125 -0.15125,0 -0.25125,0.0562 -0.30125,0.17 -0.0337,0.075 -0.05,0.20125 -0.05,0.3775 v 2.11875 c 0,0.18875 0.0138,0.32125 0.0425,0.39625 0.0512,0.13 0.15375,0.195 0.30875,0.195 0.15125,0 0.25125,-0.0775 0.3025,-0.23375 0.025,-0.0787 0.0375,-0.1975 0.0375,-0.3575 v 0 z m -3.9175,-1.74875 h -1.00125 v -0.245 c 0,-0.46875 0.12375,-0.83 0.37125,-1.08125 0.24875,-0.25125 0.60625,-0.3775 1.07625,-0.3775 0.435,0 0.7725,0.10875 1.00875,0.325 0.2375,0.215 0.355,0.54 0.355,0.97 0,0.28125 -0.0462,0.5225 -0.13875,0.72375 -0.0913,0.20125 -0.2425,0.41125 -0.45125,0.62875 l -0.40875,0.39625 c -0.14375,0.13875 -0.26,0.2625 -0.3525,0.37125 -0.15625,0.18375 -0.245,0.33625 -0.27125,0.4525 h 1.6225 v 0.84875 h -2.81125 v -0.1575 c 0,-0.355 0.10125,-0.71875 0.30125,-1.08625 0.15,-0.2775 0.37875,-0.58375 0.68375,-0.91875 l 0.47625,-0.50375 c 0.10875,-0.12125 0.185,-0.2425 0.23125,-0.36375 0.0462,-0.1225 0.07,-0.2675 0.07,-0.435 0,-0.1375 -0.03,-0.24875 -0.0888,-0.3325 -0.0713,-0.1 -0.17375,-0.145 -0.30875,-0.1325 -0.14625,0 -0.24875,0.0837 -0.3075,0.25125 -0.0387,0.10875 -0.0562,0.25625 -0.0562,0.44125 v 0.225"
         style="fill:#fbc809;fill-opacity:1;fill-rule:nonzero;stroke:none"
         id="path50" />
      <path
         inkscape:connector-curvature="0"
         d="m 328.02503,114.79601 v -2.19375 c 0,-0.4575 0.1175,-0.79375 0.355,-1.01 0.23625,-0.21625 0.58625,-0.32375 1.04625,-0.32375 0.54125,0 0.915,0.135 1.12,0.4025 0.18,0.23375 0.27125,0.635 0.27125,1.20125 v 1.6975 c 0,0.5375 -0.0987,0.92 -0.29625,1.15125 -0.21375,0.25125 -0.5825,0.3775 -1.10625,0.3775 -0.4525,0 -0.79875,-0.105 -1.035,-0.315 -0.2375,-0.21 -0.355,-0.53875 -0.355,-0.9875 z m 1.74125,-0.075 v -2.11875 c 0,-0.13875 -0.007,-0.23625 -0.025,-0.29625 -0.05,-0.1675 -0.15375,-0.25125 -0.315,-0.25125 -0.15,0 -0.25,0.0562 -0.30125,0.17 -0.0337,0.075 -0.05,0.2 -0.05,0.3775 v 2.11875 c 0,0.18875 0.015,0.32 0.0437,0.39625 0.0512,0.13 0.15375,0.19375 0.3075,0.19375 0.15125,0 0.25125,-0.0763 0.3025,-0.2325 0.025,-0.0787 0.0375,-0.19875 0.0375,-0.3575 v 0 z m -5.00625,0.365 v -0.88 l 1.4725,-2.83625 h 1.10125 v 2.93 h 0.415 v 0.78625 h -0.415 v 0.89875 h -1.00125 v -0.89875 z m 0.7925,-0.78625 h 0.78 v -1.52875 l -0.78,1.52875 v 0"
         style="fill:#fbc809;fill-opacity:1;fill-rule:nonzero;stroke:none"
         id="path52" />
      <path
         inkscape:connector-curvature="0"
         d="m 339.16878,109.30976 v -2.1925 c 0,-0.4575 0.11875,-0.79375 0.355,-1.01 0.2375,-0.21625 0.5875,-0.32375 1.0475,-0.32375 0.54125,0 0.915,0.13375 1.12,0.4025 0.18,0.235 0.27,0.635 0.27,1.2 v 1.69875 c 0,0.53625 -0.0987,0.92 -0.295,1.15125 -0.215,0.25125 -0.5825,0.3775 -1.10625,0.3775 -0.45375,0 -0.79875,-0.105 -1.03625,-0.315 -0.23625,-0.20875 -0.355,-0.53875 -0.355,-0.98875 z m 1.7425,-0.0738 v -2.11875 c 0,-0.13875 -0.009,-0.2375 -0.025,-0.29625 -0.05,-0.1675 -0.155,-0.25125 -0.315,-0.25125 -0.15,0 -0.25125,0.0562 -0.30125,0.17 -0.0337,0.075 -0.05,0.20125 -0.05,0.3775 v 2.11875 c 0,0.18875 0.0138,0.32 0.0437,0.39625 0.05,0.12875 0.15375,0.195 0.3075,0.195 0.15125,0 0.2525,-0.0775 0.3025,-0.2325 0.025,-0.08 0.0375,-0.2 0.0375,-0.35875 v 0 z m -2.15,-2.2325 h -1 c 0,-0.13875 -0.0213,-0.24125 -0.0638,-0.30875 -0.0537,-0.0838 -0.14875,-0.125 -0.2825,-0.125 -0.13875,0 -0.23625,0.0687 -0.28875,0.2075 -0.0387,0.10125 -0.0575,0.23875 -0.0575,0.415 v 0.5025 c 0.12625,-0.0962 0.23625,-0.15875 0.33,-0.1875 0.095,-0.03 0.22375,-0.0438 0.3875,-0.0438 0.39,0 0.67,0.14625 0.8425,0.43875 0.13375,0.23125 0.20125,0.55625 0.20125,0.975 0,0.57875 -0.095,1 -0.28375,1.26375 -0.22625,0.315 -0.61375,0.4725 -1.1625,0.4725 -0.495,0 -0.85375,-0.15875 -1.075,-0.475 -0.19375,-0.2725 -0.29,-0.67125 -0.29,-1.1925 v -1.25125 c 0,-0.6025 0.0688,-1.0425 0.2075,-1.31875 0.20125,-0.395 0.56875,-0.5925 1.1,-0.5925 0.4775,0 0.8275,0.0837 1.05,0.25125 0.25625,0.1925 0.385,0.515 0.385,0.96875 v 0 z m -1.34125,2.82375 c 0.13625,0 0.23125,-0.0675 0.29,-0.2025 0.0462,-0.105 0.07,-0.2425 0.07,-0.41375 v -0.4725 c 0,-0.15125 -0.0238,-0.26375 -0.07,-0.33875 -0.0588,-0.10125 -0.15875,-0.15125 -0.30125,-0.15125 -0.12625,0 -0.21375,0.0438 -0.26375,0.13125 -0.0513,0.0887 -0.0763,0.20375 -0.0763,0.34625 v 0.69125 c 0,0.1225 0.0288,0.22125 0.085,0.2975 0.0563,0.075 0.14625,0.1125 0.26625,0.1125 v 0"
         style="fill:#fbc809;fill-opacity:1;fill-rule:nonzero;stroke:none"
         id="path54" />
      <path
         inkscape:connector-curvature="0"
         d="m 351.05003,108.83476 v -2.19375 c 0,-0.4575 0.1175,-0.795 0.355,-1.01 0.23625,-0.21625 0.58625,-0.32375 1.0475,-0.32375 0.54125,0 0.91375,0.135 1.11875,0.4025 0.18125,0.23375 0.27125,0.635 0.27125,1.20125 v 1.6975 c 0,0.53625 -0.0987,0.92 -0.29625,1.15125 -0.21375,0.25125 -0.5825,0.3775 -1.1075,0.3775 -0.45125,0 -0.7975,-0.105 -1.03375,-0.315 -0.2375,-0.21 -0.355,-0.53875 -0.355,-0.9875 z m 1.74125,-0.075 v -2.11875 c 0,-0.13875 -0.007,-0.2375 -0.025,-0.29625 -0.05,-0.1675 -0.155,-0.25125 -0.31375,-0.25125 -0.15125,0 -0.25125,0.0563 -0.30125,0.17 -0.0337,0.075 -0.0512,0.2 -0.0512,0.3775 v 2.11875 c 0,0.18875 0.015,0.32 0.0437,0.39625 0.0512,0.13 0.15375,0.19375 0.30875,0.19375 0.15125,0 0.25125,-0.0763 0.30125,-0.2325 0.0263,-0.0787 0.0375,-0.19875 0.0375,-0.3575 z m -4.30125,-1.21375 c -0.19625,-0.11375 -0.33875,-0.25125 -0.42375,-0.4125 -0.0863,-0.16125 -0.13,-0.3575 -0.13,-0.5875 0,-0.4075 0.1225,-0.715 0.365,-0.92375 0.24375,-0.21125 0.575,-0.315 0.995,-0.315 0.42625,0 0.7625,0.10375 1.00625,0.31125 0.2425,0.2075 0.365,0.51625 0.365,0.9275 0,0.2175 -0.0437,0.4075 -0.1275,0.56625 -0.0962,0.175 -0.245,0.31625 -0.445,0.42125 0.23375,0.1425 0.3925,0.29625 0.47375,0.4625 0.0813,0.165 0.1225,0.395 0.1225,0.6875 0,0.50875 -0.12125,0.87625 -0.365,1.1075 -0.2425,0.23125 -0.61625,0.34625 -1.11875,0.34625 -0.4025,0 -0.72,-0.12875 -0.95,-0.38375 -0.23125,-0.25625 -0.34625,-0.6125 -0.34625,-1.07 0,-0.27625 0.0325,-0.485 0.095,-0.62875 0.08,-0.175 0.24,-0.345 0.48375,-0.50875 z m 0.4475,-0.89875 c 0,0.15 0.02,0.27 0.0625,0.3575 0.0588,0.1225 0.15625,0.1825 0.28875,0.1825 0.1475,0 0.2525,-0.06 0.315,-0.1825 0.05,-0.0962 0.075,-0.22375 0.075,-0.38375 0,-0.14625 -0.0238,-0.26875 -0.0688,-0.365 -0.0625,-0.125 -0.16245,-0.18875 -0.2962,-0.18875 -0.15,0 -0.255,0.0613 -0.31375,0.1825 -0.0425,0.0888 -0.0625,0.22125 -0.0625,0.3975 z m 0.35125,2.7225 c 0.16875,0 0.28375,-0.0837 0.34125,-0.2525 0.0312,-0.1 0.0488,-0.25875 0.0488,-0.47625 0,-0.22 -0.0175,-0.3725 -0.0488,-0.46 -0.0575,-0.15875 -0.17625,-0.23875 -0.35375,-0.23875 -0.15125,0 -0.255,0.0625 -0.30875,0.18875 -0.0375,0.0837 -0.055,0.21625 -0.055,0.39625 v 0.13125 c 0,0.20125 0.0163,0.3525 0.0487,0.4525 0.0575,0.1725 0.1675,0.25875 0.3275,0.25875 v 0"
         style="fill:#fbc809;fill-opacity:1;fill-rule:nonzero;stroke:none"
         id="path56" />
      <path
         inkscape:connector-curvature="0"
         d="m 362.52003,113.88601 v -2.19375 c 0,-0.4575 0.11875,-0.79375 0.35625,-1.01 0.23625,-0.21625 0.585,-0.32375 1.04625,-0.32375 0.54125,0 0.91375,0.135 1.11875,0.4025 0.1825,0.235 0.27125,0.63375 0.27125,1.20125 v 1.6975 c 0,0.53625 -0.0975,0.92 -0.29625,1.1525 -0.2125,0.25 -0.58125,0.37625 -1.105,0.37625 -0.45375,0 -0.79875,-0.105 -1.035,-0.315 -0.2375,-0.21 -0.35625,-0.53875 -0.35625,-0.9875 z m 1.74125,-0.075 v -2.11875 c 0,-0.13875 -0.007,-0.2375 -0.025,-0.2975 -0.05,-0.1675 -0.155,-0.25 -0.31375,-0.25 -0.15125,0 -0.25125,0.0562 -0.3025,0.17 -0.0325,0.075 -0.05,0.20125 -0.05,0.3775 v 2.11875 c 0,0.18875 0.015,0.32 0.0438,0.39625 0.0512,0.13 0.15375,0.195 0.30875,0.195 0.15125,0 0.2525,-0.0775 0.3025,-0.2325 0.025,-0.08 0.0362,-0.2 0.0362,-0.35875 z m -4.885,0.075 v -2.19375 c 0,-0.4575 0.11875,-0.79375 0.355,-1.01 0.23625,-0.21625 0.58625,-0.32375 1.04625,-0.32375 0.54125,0 0.915,0.135 1.12,0.4025 0.18125,0.235 0.27125,0.63375 0.27125,1.20125 v 1.6975 c 0,0.53625 -0.0988,0.92 -0.29625,1.1525 -0.21375,0.25 -0.5825,0.37625 -1.10625,0.37625 -0.4525,0 -0.79875,-0.105 -1.035,-0.315 -0.23625,-0.21 -0.355,-0.53875 -0.355,-0.9875 z m 1.74125,-0.075 v -2.11875 c 0,-0.13875 -0.007,-0.2375 -0.025,-0.2975 -0.05,-0.1675 -0.155,-0.25 -0.315,-0.25 -0.15,0 -0.25,0.0562 -0.30125,0.17 -0.0325,0.075 -0.05,0.20125 -0.05,0.3775 v 2.11875 c 0,0.18875 0.015,0.32 0.0437,0.39625 0.0512,0.13 0.15375,0.195 0.3075,0.195 0.1525,0 0.2525,-0.0775 0.3025,-0.2325 0.0263,-0.08 0.0375,-0.2 0.0375,-0.35875 v 0 z m -3.8675,1.26375 v -3.1825 h -0.96125 v -0.7225 c 0.30125,0 0.55875,-0.0487 0.7725,-0.145 0.26875,-0.12125 0.42875,-0.31 0.47875,-0.565 h 0.70875 v 4.615 h -0.99875 v 0"
         style="fill:#fbc809;fill-opacity:1;fill-rule:nonzero;stroke:none"
         id="path58" />
      <path
         inkscape:connector-curvature="0"
         d="m 370.16753,122.91351 v -2.195 c 0,-0.4575 0.1175,-0.79375 0.355,-1.00875 0.23625,-0.21625 0.58625,-0.325 1.0475,-0.325 0.54,0 0.91375,0.135 1.11875,0.4025 0.18125,0.235 0.27125,0.635 0.27125,1.20125 v 1.69875 c 0,0.53625 -0.1,0.92 -0.295,1.15125 -0.215,0.25125 -0.58375,0.3775 -1.1075,0.3775 -0.4525,0 -0.79875,-0.10625 -1.035,-0.315 -0.2375,-0.21 -0.355,-0.53875 -0.355,-0.9875 z m 1.74125,-0.0762 v -2.11875 c 0,-0.13875 -0.009,-0.23625 -0.0238,-0.29625 -0.0512,-0.1675 -0.155,-0.25125 -0.315,-0.25125 -0.15125,0 -0.25125,0.0563 -0.30375,0.17 -0.0325,0.075 -0.05,0.20125 -0.05,0.3775 v 2.11875 c 0,0.18875 0.015,0.32125 0.045,0.3975 0.0512,0.12875 0.15375,0.19375 0.30875,0.19375 0.15,0 0.25125,-0.0762 0.30125,-0.2325 0.025,-0.08 0.0375,-0.19875 0.0375,-0.35875 v 0 z m -3.91875,-1.7475 h -0.99875 v -0.245 c 0,-0.47 0.1225,-0.83 0.37,-1.0825 0.2475,-0.25125 0.60625,-0.3775 1.07625,-0.3775 0.435,0 0.7725,0.10875 1.00875,0.325 0.2375,0.215 0.35625,0.53875 0.35625,0.97 0,0.2825 -0.0462,0.5225 -0.13875,0.725 -0.0925,0.2 -0.24375,0.41 -0.4525,0.62875 l -0.40875,0.395 c -0.1425,0.13875 -0.26,0.2625 -0.3525,0.37125 -0.155,0.185 -0.24625,0.33625 -0.27,0.4525 h 1.6225 v 0.85 h -2.81125 v -0.1575 c 0,-0.35625 0.1,-0.71875 0.3,-1.0875 0.15,-0.2775 0.37875,-0.5825 0.68375,-0.91875 l 0.47625,-0.50375 c 0.1075,-0.12125 0.185,-0.2425 0.23125,-0.365 0.0462,-0.12125 0.0688,-0.265 0.0688,-0.4325 0,-0.13875 -0.03,-0.25 -0.0888,-0.33375 -0.07,-0.10125 -0.1725,-0.145 -0.3075,-0.1325 -0.14625,0 -0.25,0.0837 -0.30875,0.25125 -0.0363,0.11 -0.0563,0.25625 -0.0563,0.44 v 0.2275 z m -3.09375,3.0125 v -3.1825 h -0.96375 v -0.72375 c 0.3025,0 0.56125,-0.0475 0.77375,-0.14375 0.26875,-0.1225 0.4275,-0.31125 0.4775,-0.56625 h 0.7125 v 4.61625 h -1 v 0"
         style="fill:#fbc809;fill-opacity:1;fill-rule:nonzero;stroke:none"
         id="path60" />
      <path
         inkscape:connector-curvature="0"
         d="m 373.70503,134.68476 v -2.19625 c 0,-0.45625 0.1175,-0.7925 0.355,-1.00875 0.2375,-0.21625 0.5875,-0.32375 1.0475,-0.32375 0.54,0 0.91375,0.13375 1.11875,0.4025 0.18125,0.23375 0.27125,0.635 0.27125,1.20125 v 1.69875 c 0,0.535 -0.0987,0.92 -0.295,1.15 -0.215,0.25125 -0.58375,0.3775 -1.1075,0.3775 -0.4525,0 -0.7975,-0.105 -1.035,-0.31375 -0.2375,-0.21 -0.355,-0.54 -0.355,-0.9875 z m 1.74125,-0.0763 v -2.12 c 0,-0.1375 -0.007,-0.23625 -0.0238,-0.295 -0.05,-0.1675 -0.155,-0.25125 -0.315,-0.25125 -0.15,0 -0.25125,0.055 -0.30125,0.17 -0.035,0.075 -0.05,0.2 -0.05,0.37625 v 2.12 c 0,0.18875 0.0138,0.32125 0.0425,0.39625 0.0512,0.13 0.15375,0.195 0.30875,0.195 0.15125,0 0.25125,-0.0775 0.30125,-0.23375 0.025,-0.0787 0.0375,-0.1975 0.0375,-0.3575 v 0 z m -5.00625,0.365 v -0.88125 l 1.4725,-2.83625 h 1.1 v 2.93125 h 0.415 v 0.78625 h -0.415 v 0.89875 h -1 v -0.89875 z m 0.7925,-0.78625 h 0.78 v -1.52875 z m -2.7975,1.685 v -3.18125 h -0.96375 v -0.72375 c 0.3025,0 0.56,-0.0475 0.775,-0.145 0.26625,-0.12125 0.42625,-0.31125 0.47625,-0.56625 h 0.71125 v 4.61625 h -0.99875 v 0"
         style="fill:#fbc809;fill-opacity:1;fill-rule:nonzero;stroke:none"
         id="path62" />
      <path
         inkscape:connector-curvature="0"
         d="m 373.16378,146.08476 v -2.195 c 0,-0.45625 0.11875,-0.79375 0.355,-1.00875 0.2375,-0.21625 0.58625,-0.325 1.0475,-0.325 0.54125,0 0.915,0.135 1.12,0.40375 0.18,0.23375 0.27,0.63375 0.27,1.20125 v 1.6975 c 0,0.53625 -0.1,0.92 -0.29625,1.15125 -0.21375,0.25125 -0.5825,0.3775 -1.10625,0.3775 -0.4525,0 -0.7975,-0.105 -1.035,-0.315 -0.23625,-0.21 -0.355,-0.53875 -0.355,-0.9875 z m 1.7425,-0.075 v -2.12 c 0,-0.13875 -0.009,-0.2375 -0.025,-0.29625 -0.0512,-0.1675 -0.15625,-0.25125 -0.315,-0.25125 -0.15125,0 -0.25125,0.0562 -0.3025,0.17 -0.0325,0.075 -0.05,0.20125 -0.05,0.3775 v 2.12 c 0,0.1875 0.015,0.32 0.0437,0.39625 0.05,0.12875 0.15375,0.19375 0.30875,0.19375 0.15,0 0.25125,-0.0763 0.30125,-0.23125 0.0263,-0.0813 0.0387,-0.2 0.0387,-0.35875 v 0 z m -2.15125,-2.2325 h -1.00125 c 0,-0.13875 -0.0188,-0.24125 -0.0625,-0.30875 -0.055,-0.0837 -0.14875,-0.12625 -0.2825,-0.12625 -0.13875,0 -0.235,0.07 -0.29,0.2075 -0.0375,0.10125 -0.0563,0.23875 -0.0563,0.415 v 0.50375 c 0.12625,-0.0962 0.23625,-0.16 0.33,-0.18875 0.0937,-0.03 0.22375,-0.0438 0.3875,-0.0438 0.39,0 0.67,0.14625 0.84125,0.44 0.135,0.23 0.2025,0.555 0.2025,0.975 0,0.57875 -0.095,1 -0.28375,1.26375 -0.22625,0.315 -0.61375,0.4725 -1.16375,0.4725 -0.49375,0 -0.8525,-0.15875 -1.075,-0.475 -0.1925,-0.2725 -0.28875,-0.67125 -0.28875,-1.19375 v -1.25 c 0,-0.60375 0.0687,-1.0425 0.2075,-1.31875 0.20125,-0.395 0.56875,-0.59375 1.1,-0.59375 0.47875,0 0.83,0.0837 1.05,0.2525 0.25625,0.1925 0.385,0.515 0.385,0.96875 v 0 z m -1.34,2.8225 c 0.13375,0 0.23,-0.0662 0.28875,-0.2 0.0462,-0.105 0.07,-0.24375 0.07,-0.415 v -0.4725 c 0,-0.15125 -0.0238,-0.26375 -0.07,-0.34 -0.0587,-0.1 -0.15875,-0.15125 -0.30125,-0.15125 -0.12625,0 -0.21375,0.045 -0.26375,0.1325 -0.0512,0.0875 -0.0763,0.20375 -0.0763,0.34625 v 0.6925 c 0,0.12125 0.0288,0.22 0.085,0.295 0.0575,0.075 0.14625,0.1125 0.2675,0.1125 v 0 z m -3.5225,0.67375 v -3.1825 h -0.9625 v -0.72375 c 0.3025,0 0.56,-0.0475 0.77375,-0.14375 0.26875,-0.1225 0.42875,-0.31125 0.47875,-0.56625 h 0.71 v 4.61625 h -1 v 0"
         style="fill:#fbc809;fill-opacity:1;fill-rule:nonzero;stroke:none"
         id="path64" />
      <path
         inkscape:connector-curvature="0"
         d="m 365.43128,157.25851 v -2.195 c 0,-0.4575 0.1175,-0.79375 0.355,-1.00875 0.23625,-0.21625 0.585,-0.32375 1.0475,-0.32375 0.54,0 0.91375,0.13375 1.11875,0.40125 0.18125,0.235 0.27,0.635 0.27,1.20125 v 1.6975 c 0,0.5375 -0.0975,0.92125 -0.295,1.15125 -0.21375,0.25125 -0.5825,0.37875 -1.10625,0.37875 -0.45375,0 -0.79875,-0.105 -1.035,-0.315 -0.2375,-0.21 -0.355,-0.54 -0.355,-0.9875 z m 1.74125,-0.0763 v -2.11875 c 0,-0.13875 -0.009,-0.2375 -0.025,-0.29625 -0.05,-0.1675 -0.155,-0.25125 -0.31375,-0.25125 -0.15125,0 -0.2525,0.0575 -0.3025,0.17 -0.0337,0.075 -0.05,0.20125 -0.05,0.3775 v 2.11875 c 0,0.18875 0.0137,0.32125 0.0437,0.39625 0.0512,0.13 0.15375,0.195 0.30875,0.195 0.15125,0 0.25125,-0.0775 0.30125,-0.2325 0.025,-0.0788 0.0375,-0.2 0.0375,-0.35875 v 0 z m -4.3,-1.21375 c -0.19875,-0.1125 -0.34,-0.25 -0.425,-0.41125 -0.0875,-0.16125 -0.13,-0.3575 -0.13,-0.5875 0,-0.4075 0.1225,-0.71625 0.365,-0.92625 0.24375,-0.20875 0.575,-0.3125 0.99375,-0.3125 0.4275,0 0.76375,0.1025 1.0075,0.31 0.24125,0.2075 0.36375,0.5175 0.36375,0.92875 0,0.21625 -0.0425,0.40625 -0.12625,0.565 -0.0962,0.17625 -0.245,0.3175 -0.44625,0.4225 0.235,0.14125 0.3925,0.295 0.475,0.46125 0.0812,0.165 0.1225,0.395 0.1225,0.68875 0,0.5075 -0.12125,0.87625 -0.365,1.1075 -0.24375,0.23 -0.61625,0.34625 -1.12,0.34625 -0.40125,0 -0.7175,-0.12875 -0.94875,-0.385 -0.23,-0.25625 -0.345,-0.61125 -0.345,-1.06875 0,-0.27625 0.03,-0.48625 0.0937,-0.62875 0.0787,-0.17625 0.24,-0.34625 0.485,-0.51 v 0 z m 0.445,-0.89875 c 0,0.15125 0.0213,0.27 0.0625,0.3575 0.06,0.1225 0.15625,0.18375 0.29,0.18375 0.1475,0 0.2525,-0.0613 0.31375,-0.18375 0.05,-0.095 0.0762,-0.22375 0.0762,-0.3825 0,-0.1475 -0.0238,-0.26875 -0.07,-0.365 -0.0625,-0.12625 -0.16125,-0.18875 -0.295,-0.18875 -0.15,0 -0.255,0.0613 -0.315,0.1825 -0.0412,0.0875 -0.0625,0.22 -0.0625,0.39625 v 0 z m 0.3525,2.7225 c 0.16875,0 0.2825,-0.0838 0.34125,-0.25125 0.0312,-0.1 0.0487,-0.26 0.0487,-0.47875 0,-0.2175 -0.0175,-0.37 -0.0487,-0.45875 -0.0587,-0.15875 -0.17625,-0.23875 -0.35375,-0.23875 -0.15125,0 -0.255,0.0625 -0.30875,0.18875 -0.0375,0.0838 -0.055,0.21625 -0.055,0.39625 v 0.13125 c 0,0.2025 0.015,0.3525 0.0487,0.45375 0.0575,0.17125 0.16625,0.2575 0.3275,0.2575 v 0 z m -3.51,0.65375 v -3.18125 h -0.96125 v -0.7225 c 0.3025,0 0.55875,-0.0488 0.77375,-0.14625 0.2675,-0.12125 0.4275,-0.31 0.4775,-0.565 h 0.71125 v 4.615 h -1.00125 v 0"
         style="fill:#fbc809;fill-opacity:1;fill-rule:nonzero;stroke:none"
         id="path66" />
      <path
         inkscape:connector-curvature="0"
         d="m 306.97378,135.69226 h 5.22625 v 1.245 h -5.22625 z m 3.925,-16.45625 4.73625,2.21 -0.5275,1.13 -4.73625,-2.20875 z m 10.51,-13.25375 3.35875,4.00375 -0.95375,0.80125 -3.36,-4.00375 z m 15.12625,-7.571245 1.35375,5.048745 -1.20375,0.3225 -1.3525,-5.048745 z m 16.91,-0.4675 -0.9075,5.146245 -1.2275,-0.21625 0.9075,-5.146245 z m 15.5225,6.722495 -2.9975,4.28 -1.02,-0.71375 2.99625,-4.28125 z m 11.2275,12.65125 -4.525,2.61375 -0.62375,-1.07875 4.52625,-2.6125 z m 4.82875,16.2125 -5.20625,0.45625 -0.1075,-1.24125 5.205,-0.455 z m -2.475,16.735 -4.91125,-1.78875 0.4275,-1.17 4.91125,1.7875 z m -74.09,-23.15 5.1025,1.13125 -0.27,1.21625 -5.10125,-1.13125 z m 7.3925,-15.215 4.14625,3.18125 -0.75875,0.9875 -4.14625,-3.18 z m 13.13,-10.66625 2.41375,4.63625 -1.105,0.575 -2.41375,-4.635 z m 16.40625,-4.116245 0.22875,5.219995 -1.245,0.055 -0.2275,-5.221245 z m 16.60875,3.202495 -1.99875,4.82875 -1.15125,-0.4775 2.00125,-4.827495 z m 13.70125,9.9225 -3.8525,3.53 -0.84125,-0.9175 3.855,-3.53125 z m 8.225,14.7825 -4.985,1.5725 -0.375,-1.18875 4.985,-1.5725 z m 1.20375,16.87375 -5.18,-0.6825 0.1625,-1.235 5.18,0.68125 z m -6.0375,15.80125 -4.4075,-2.80875 0.67,-1.05 4.40625,2.80875 z m -5.855,6.685 -3.695,-3.695 0.88125,-0.88125 3.695,3.695 -0.88125,0.88125 v 0"
         style="fill:#fbc809;fill-opacity:1;fill-rule:evenodd;stroke:none"
         id="path68" />
      <path
         inkscape:connector-curvature="0"
         d="m 293.70503,156.55476 h -2.215 v -9.435 h 2.215 v 3.62375 h 1.535 v -3.62375 h 2.2125 v 9.435 h -2.2125 v -3.925 h -1.535 z m -6.84375,0 h -2.21375 v -9.435 h 2.62875 c 0.57,0 1.0475,0.0425 1.43375,0.12625 0.57875,0.12625 1.0025,0.34375 1.27125,0.65375 0.235,0.26875 0.40125,0.5875 0.5025,0.95625 0.0762,0.285 0.11375,0.65 0.11375,1.095 0,0.6025 -0.08,1.11125 -0.24,1.52125 -0.2,0.52 -0.53625,0.88875 -1.005,1.1075 -0.24375,0.1175 -0.51,0.19625 -0.79875,0.23875 -0.29,0.0425 -0.62375,0.0625 -1.00125,0.0625 h -0.69125 z m 0,-7.73625 v 2.365 h 0.31375 c 0.2025,0 0.37625,-0.015 0.5225,-0.0437 0.14625,-0.03 0.2825,-0.095 0.40875,-0.195 0.11,-0.1175 0.1825,-0.255 0.22,-0.40875 0.0375,-0.15625 0.0575,-0.33875 0.0575,-0.5475 0,-0.26 -0.0213,-0.465 -0.0638,-0.6175 -0.0675,-0.2425 -0.18375,-0.40125 -0.3525,-0.4775 -0.0913,-0.0325 -0.19375,-0.055 -0.3075,-0.0625 -0.11375,-0.009 -0.2575,-0.0125 -0.43375,-0.0125 h -0.365 v 0 z m -9.95,7.73625 h -2.10125 v -9.435 h 3.12 l 1.145,5.5725 1.2075,-5.5725 h 3.09375 v 9.435 h -2.1125 l 0.22625,-7.39625 -1.585,7.39625 h -1.64875 l -1.52125,-7.39625 0.17625,7.39625 v 0"
         style="fill:#fdfcce;fill-opacity:1;fill-rule:nonzero;stroke:none"
         id="path70" />
      <path
         inkscape:connector-curvature="0"
         d="m 319.07628,155.12851 h -0.58375 v -7.5475 h 0.58375 v 2.485 c 0.13375,-0.2075 0.3075,-0.36625 0.51875,-0.4725 0.21125,-0.1075 0.44125,-0.16125 0.68875,-0.16125 0.255,0 0.48375,0.0362 0.68375,0.105 0.2025,0.0712 0.3625,0.1975 0.48375,0.37875 0.1075,0.14 0.175,0.305 0.20125,0.4925 0.0263,0.1875 0.04,0.42 0.04,0.695 v 4.025 h -0.5825 v -3.915 c 0,-0.415 -0.0412,-0.7075 -0.12125,-0.87625 -0.12875,-0.26125 -0.37375,-0.3925 -0.73625,-0.3925 -0.26,0 -0.4925,0.075 -0.69375,0.2225 -0.2,0.1475 -0.36125,0.34875 -0.4825,0.60375 z m -4.11625,0.945 2.45625,-8.4925 h 0.5525 l -2.465,8.4925 z m -5.44375,-5.1825 v 4.2375 h -0.585 v -5.555 h 0.585 v 0.4925 c 0.275,-0.42125 0.67375,-0.63375 1.1975,-0.63375 0.275,0 0.4825,0.0312 0.62375,0.0913 0.20875,0.0863 0.39,0.26375 0.54375,0.5325 0.15375,-0.20875 0.3475,-0.36375 0.5775,-0.4675 0.2325,-0.10375 0.48125,-0.15625 0.75125,-0.15625 0.46875,0 0.80375,0.14125 1.005,0.4225 0.18125,0.24875 0.2725,0.61 0.2725,1.0875 v 4.18625 h -0.585 v -4.2375 c 0,-0.2725 -0.0525,-0.4925 -0.16,-0.6575 -0.1275,-0.2 -0.32875,-0.2975 -0.6025,-0.2975 -0.34375,0 -0.61875,0.1 -0.82625,0.30125 -0.20875,0.20125 -0.3125,0.48 -0.3125,0.835 v 4.05625 h -0.5825 v -4.02375 c 0,-0.49 -0.07,-0.80875 -0.20625,-0.9525 -0.13875,-0.145 -0.345,-0.21625 -0.62,-0.21625 -0.24125,0 -0.48125,0.1 -0.71875,0.3 -0.23875,0.2 -0.3575,0.42 -0.3575,0.655 v 0 z m -3.875,4.2375 h -0.5825 v -7.5475 h 0.5825 v 4.60875 l 1.80125,-2.61625 h 0.735 l -1.51125,2.07125 1.54125,3.48375 -0.60875,-0.002 -1.3425,-2.88625 -0.615,0.8575 v 2.03125"
         style="fill:#fbc809;fill-opacity:1;fill-rule:nonzero;stroke:none"
         id="path72" />
      <path
         inkscape:connector-curvature="0"
         d="m 268.97477,136.2002 0.36425,-1.19854 85.93461,-0.98814 -1.04225,5.2925 -85.39871,-1.71686"
         style="fill:#fbc809;fill-opacity:1;fill-rule:evenodd;stroke:none;stroke-width:1;filter:url(#filter3473)"
         id="needle"
         sodipodi:nodetypes="ccccc"
         inkscape:label="{&quot;attr&quot;:&quot;color&quot;,&quot;list&quot;:[{&quot;data&quot;:&quot;-99999&quot;,&quot;param&quot;:&quot;#fbc809&quot;,&quot;tag&quot;:&quot;%n&quot;},{&quot;data&quot;:&quot;100&quot;,&quot;param&quot;:&quot;#fbc809&quot;,&quot;tag&quot;:&quot;%n&quot;},{&quot;data&quot;:&quot;120&quot;,&quot;param&quot;:&quot;@red&quot;,&quot;tag&quot;:&quot;%n&quot;}]},{&quot;attr&quot;:&quot;rotate&quot;,&quot;max&quot;:180,&quot;min&quot;:0,&quot;tag&quot;:&quot;%n&quot;},{&quot;align&quot;:&quot;Right&quot;,&quot;attr&quot;:&quot;set&quot;,&quot;prompt&quot;:&quot;&quot;,&quot;src&quot;:&quot;&quot;,&quot;tag&quot;:&quot;#exec_once&quot;,&quot;type&quot;:&quot;Data&quot;}"
         inkscape:transform-center-x="35.35534"
         inkscape:transform-center-y="0.50507627" />
      <ellipse
         style="opacity:0.28699999;fill:url(#radialGradient20254);fill-opacity:1;stroke:none;stroke-width:0.9398632;stroke-linejoin:miter;stroke-miterlimit:4;stroke-dasharray:none;stroke-dashoffset:0;stroke-opacity:1"
         id="path19403"
         cx="346.08453"
         cy="136.86678"
         rx="74.053612"
         ry="75.952423" />
      <text
         xml:space="preserve"
         style="font-style:normal;font-variant:normal;font-weight:bold;font-stretch:normal;font-size:18.37029648px;line-height:125%;font-family:Arial;-inkscape-font-specification:'Arial, Bold';font-variant-ligatures:normal;font-variant-caps:normal;font-variant-numeric:normal;font-feature-settings:normal;text-align:end;letter-spacing:0px;word-spacing:0px;writing-mode:lr-tb;text-anchor:end;fill:#ff0000;fill-opacity:1;stroke:none;stroke-width:0.9398632px;stroke-linecap:butt;stroke-linejoin:miter;stroke-opacity:1"
         x="359.74234"
         y="198.45889"
         id="text_mph"
         transform="scale(0.97768101,1.0228285)"
         inkscape:label="{&quot;align&quot;:&quot;Right&quot;,&quot;attr&quot;:&quot;get&quot;,&quot;tag&quot;:&quot;%n&quot;,&quot;type&quot;:&quot;Good&quot;}"><tspan
           sodipodi:role="line"
           id="tspan19405"
           x="359.74234"
           y="198.45889"
           style="font-style:normal;font-variant:normal;font-weight:bold;font-stretch:normal;font-size:18.37029648px;font-family:Arial;-inkscape-font-specification:'Arial, Bold';font-variant-ligatures:normal;font-variant-caps:normal;font-variant-numeric:normal;font-feature-settings:normal;text-align:end;writing-mode:lr-tb;text-anchor:end;stroke-width:0.9398632px">%3.0fMPH</tspan></text>
      <text
         xml:space="preserve"
         style="font-style:normal;font-variant:normal;font-weight:bold;font-stretch:normal;font-size:14.69096851px;line-height:125%;font-family:Arial;-inkscape-font-specification:'Arial, Bold';font-variant-ligatures:normal;font-variant-caps:normal;font-variant-numeric:normal;font-feature-settings:normal;text-align:end;letter-spacing:0px;word-spacing:0px;writing-mode:lr-tb;text-anchor:end;fill:#800000;fill-opacity:1;stroke:none;stroke-width:0.93986315px;stroke-linecap:butt;stroke-linejoin:miter;stroke-opacity:1"
         x="359.57623"
         y="179.06665"
         id="text_kmh"
         transform="scale(0.97768101,1.0228285)"
         inkscape:label="{&quot;align&quot;:&quot;Right&quot;,&quot;attr&quot;:&quot;get&quot;,&quot;tag&quot;:&quot;!EVAL parseFloat(thisobj.previousSibling.previousSibling.textContent)/0.62137&quot;,&quot;type&quot;:&quot;Good&quot;}"><tspan
           sodipodi:role="line"
           id="tspan19405-0"
           x="359.57623"
           y="179.06665"
           style="font-style:normal;font-variant:normal;font-weight:bold;font-stretch:normal;font-size:14.69096851px;font-family:Arial;-inkscape-font-specification:'Arial, Bold';font-variant-ligatures:normal;font-variant-caps:normal;font-variant-numeric:normal;font-feature-settings:normal;text-align:end;writing-mode:lr-tb;text-anchor:end;fill:#800000;stroke-width:0.93986315px">%3.0fkm/h</tspan></text>
    </g>
  </g>
</svg>
